<svg width="24" height="24" viewBox="0 0 24 24" fill="none" xmlns="http://www.w3.org/2000/svg">
<g id="click 1">
<g id="Union">
<path d="M4.58861 1.8004C4.92541 1.62723 5.33882 1.75987 5.512 2.09667L5.97396 2.99511C6.14713 3.33191 6.01449 3.74532 5.67769 3.91849C5.34089 4.09167 4.92748 3.95902 4.75431 3.62223L4.29235 2.72378C4.11917 2.38699 4.25182 1.97357 4.58861 1.8004Z" fill="#2555A9"/>
<path fill-rule="evenodd" clip-rule="evenodd" d="M5.68866 8.68233C5.11815 7.48591 5.62556 6.05352 6.82198 5.48302C8.01841 4.91251 9.45079 5.41992 10.0213 6.61634L11.6655 10.0644C11.7934 10.3328 12.0985 10.4669 12.3828 10.3799L16.0201 9.26572C18.0413 8.64662 20.2028 9.65994 21.0197 11.6096L22.273 14.6006C22.9753 16.2766 22.453 18.2154 21.0039 19.3118C19.501 20.4489 17.8866 21.4306 16.1855 22.2418L15.9198 22.3685C14.3775 23.1039 12.5656 22.9958 11.1218 22.0822L8.95479 20.711C8.112 20.1777 7.16998 19.8206 6.18548 19.6611L6.13963 19.6537C4.88098 19.4498 4.33411 17.9441 5.16855 16.98C6.13684 15.8612 7.66009 15.4031 9.07981 15.794L5.68866 8.68233ZM7.41227 6.72091C6.89951 6.96542 6.68205 7.57929 6.92656 8.09205L10.6002 15.7962C11.0062 16.6476 10.2049 17.5749 9.30368 17.2966L8.78892 17.1376C7.85726 16.8499 6.84363 17.1402 6.20552 17.8775C6.07369 18.0298 6.16009 18.2677 6.35892 18.2999L6.40478 18.3073C7.57201 18.4964 8.68888 18.9198 9.68809 19.5521L11.8551 20.9232C12.9006 21.5848 14.2127 21.6631 15.3295 21.1306L15.5952 21.0039C17.2126 20.2326 18.7475 19.2993 20.1764 18.2182C21.1261 17.4996 21.4684 16.229 21.0081 15.1306L19.7549 12.1396C19.2102 10.8399 17.7693 10.1643 16.4218 10.577L12.7844 11.6912C11.8505 11.9772 10.848 11.5363 10.4276 10.6547L8.7834 7.20662C8.5389 6.69387 7.92502 6.47641 7.41227 6.72091Z" fill="#2555A9"/>
<path d="M1.95157 5.95344C2.03382 5.58378 2.40017 5.35078 2.76984 5.43301L3.75598 5.65242C4.12565 5.73466 4.35865 6.10101 4.27641 6.47068C4.19417 6.84036 3.82782 7.07336 3.45814 6.99112L2.472 6.77172C2.10233 6.68947 1.86933 6.32312 1.95157 5.95344Z" fill="#2555A9"/>
<path d="M2.28641 10.4988C2.16278 10.1408 2.35275 9.75044 2.71072 9.62682L3.66563 9.29703C4.02359 9.17341 4.41399 9.36338 4.53762 9.72134C4.66124 10.0793 4.47127 10.4697 4.11331 10.5933L3.1584 10.9231C2.80043 11.0467 2.41003 10.8567 2.28641 10.4988Z" fill="#2555A9"/>
<path d="M9.86659 2.17921C9.52758 2.01041 9.11592 2.1484 8.94712 2.48741L8.49683 3.39176C8.32804 3.73077 8.46602 4.14243 8.80503 4.31123C9.14404 4.48002 9.5557 4.34204 9.7245 4.00303L10.1748 3.09868C10.3436 2.75967 10.2056 2.34801 9.86659 2.17921Z" fill="#2555A9"/>
<path d="M13.1876 5.30063C12.9872 4.97924 12.5643 4.88109 12.2429 5.08141L11.3856 5.61579C11.0642 5.81612 10.966 6.23905 11.1664 6.56044C11.3667 6.88183 11.7896 6.97998 12.111 6.77965L12.9684 6.24527C13.2897 6.04495 13.3879 5.62202 13.1876 5.30063Z" fill="#2555A9"/>
</g>
</g>
</svg>
