<svg width="79" height="55" viewBox="0 0 79 55" fill="none" xmlns="http://www.w3.org/2000/svg">
<g id="Group" filter="url(#filter0_d_3723_4582)">
<path id="Vector" d="M18.1005 22.2512L18.6989 22.2832L18.6233 21.6888C18.5701 21.2706 18.5446 20.8419 18.5446 20.4023C18.5446 14.6327 23.224 9.95325 28.9937 9.95325C30.1891 9.95325 31.3356 10.1537 32.4028 10.5208L32.8429 10.6722L33.0254 10.244C35.2488 5.02738 40.4255 1.37131 46.4531 1.37131C54.5133 1.37131 61.0454 7.90339 61.0454 15.9636C61.0454 17.9616 60.6447 19.8641 59.9185 21.5971L59.5937 22.3721L60.4297 22.2878C60.7931 22.2512 61.1667 22.2343 61.5454 22.2343C67.9691 22.2343 73.1782 27.4434 73.1782 33.8671C73.1782 40.2909 67.9691 45.5 61.5454 45.5H17.4527C11.029 45.5 5.81982 40.2909 5.81982 33.8671C5.81982 27.4434 11.029 22.2343 17.4527 22.2343C17.6723 22.2343 17.8881 22.2398 18.1005 22.2512Z" fill="white" stroke="#B1D4FF"/>
<g id="Vector_2">
<mask id="path-2-inside-1_3723_4582" fill="white">
<path d="M61.5359 15.5944C61.5138 14.6709 61.4127 13.7676 61.2318 12.8924C61.0345 13.8474 60.748 14.7704 60.3792 15.6505C60.7582 15.6124 61.1454 15.5948 61.5359 15.5944Z"/>
</mask>
<path d="M61.5359 15.5944C61.5138 14.6709 61.4127 13.7676 61.2318 12.8924C61.0345 13.8474 60.748 14.7704 60.3792 15.6505C60.7582 15.6124 61.1454 15.5948 61.5359 15.5944Z" fill="#D9D9E8"/>
<path d="M61.5359 15.5944L61.537 16.5944L62.5601 16.5933L62.5356 15.5705L61.5359 15.5944ZM61.2318 12.8924L62.2111 12.69L60.2525 12.6901L61.2318 12.8924ZM60.3792 15.6505L59.4569 15.264L58.8076 16.8133L60.4791 16.6455L60.3792 15.6505ZM62.5356 15.5705C62.5121 14.5897 62.4047 13.6264 62.2111 12.69L60.2525 13.0949C60.4207 13.9087 60.5155 14.7522 60.5362 15.6183L62.5356 15.5705ZM60.2525 12.6901C60.0682 13.5822 59.8007 14.4435 59.4569 15.264L61.3014 16.037C61.6952 15.0973 62.0008 14.1126 62.2111 13.0948L60.2525 12.6901ZM60.4791 16.6455C60.8215 16.6111 61.1755 16.5948 61.537 16.5944L61.5349 14.5944C61.1153 14.5948 60.6948 14.6137 60.2792 14.6555L60.4791 16.6455Z" fill="#CFE4FF" mask="url(#path-2-inside-1_3723_4582)"/>
</g>
<path id="Vector_3" d="M17.4527 40.3601H61.5454C66.7266 40.3601 71.179 37.2393 73.1274 32.7761C73.161 33.1352 73.1782 33.4992 73.1782 33.8671C73.1782 40.2909 67.9691 45.5 61.5454 45.5H17.4527C11.029 45.5 5.81982 40.2909 5.81982 33.8671C5.81982 33.4992 5.83703 33.1352 5.87061 32.7761C7.81908 37.2393 12.2714 40.3601 17.4527 40.3601Z" fill="#E7F5FC" stroke="url(#paint0_linear_3723_4582)"/>
</g>
<defs>
<filter id="filter0_d_3723_4582" x="0.519824" y="0.0713072" width="77.9584" height="54.7287" filterUnits="userSpaceOnUse" color-interpolation-filters="sRGB">
<feFlood flood-opacity="0" result="BackgroundImageFix"/>
<feColorMatrix in="SourceAlpha" type="matrix" values="0 0 0 0 0 0 0 0 0 0 0 0 0 0 0 0 0 0 127 0" result="hardAlpha"/>
<feOffset dy="4"/>
<feGaussianBlur stdDeviation="2.4"/>
<feComposite in2="hardAlpha" operator="out"/>
<feColorMatrix type="matrix" values="0 0 0 0 0.184336 0 0 0 0 0.447865 0 0 0 0 0.75625 0 0 0 0.24 0"/>
<feBlend mode="normal" in2="BackgroundImageFix" result="effect1_dropShadow_3723_4582"/>
<feBlend mode="normal" in="SourceGraphic" in2="effect1_dropShadow_3723_4582" result="shape"/>
</filter>
<linearGradient id="paint0_linear_3723_4582" x1="39.499" y1="30.7972" x2="39.499" y2="46" gradientUnits="userSpaceOnUse">
<stop offset="0.124079" stop-color="white" stop-opacity="0"/>
<stop offset="1" stop-color="#CFE4FF"/>
</linearGradient>
</defs>
</svg>
