<?xml version="1.0" encoding="UTF-8"?>
<svg width="356px" height="336px" viewBox="0 0 356 336" version="1.1" xmlns="http://www.w3.org/2000/svg" xmlns:xlink="http://www.w3.org/1999/xlink">
    <!-- Generator: Sketch 51.3 (57544) - http://www.bohemiancoding.com/sketch -->
    <title>logo-new</title>
    <desc>Created with Sketch.</desc>
    <defs></defs>
    <g id="demo" stroke="none" stroke-width="1" fill="none" fill-rule="evenodd">
        <g id="logo-new" transform="translate(-3.000000, 0.000000)">
            <g transform="translate(3.000000, 0.000000)">
                <path d="M354.373606,191.841957 C366.564705,106.644515 308.943442,16.0756059 212.601763,2.38196552 C111.225193,-12.0011161 34.7417919,65.5764566 23.6861895,142.817026 C18.7648464,177.296805 29.4823806,204.34451 25.7791151,230.324611 C21.9416546,257.03274 10.1299151,269.573882 3.20080851,280.311672 C-1.67666314,287.820921 -1.18117396,299.788386 6.08342007,308.784565 C13.8976974,318.48562 23.5158651,320.209223 33.8308144,316.548496 C44.2747973,312.802875 58.2284953,306.705951 82.3861737,309.137003 C115.137493,312.437574 126.773746,328.804086 165.150932,334.25273 C264.277156,348.319389 342.437994,275.27978 354.373606,191.841957" id="Fill-1" fill="#D43157"></path>
                <path d="M325.519877,121.492712 C330.647674,123.043955 333.607706,128.556912 332.095432,133.833196 C330.867032,138.013576 327.039894,140.951419 322.763719,140.951419 C321.844999,140.951419 320.908215,140.807357 320.00756,140.534667 C317.439791,139.757759 314.748149,139.364161 312.038443,139.364161 C296.510534,139.364161 283.87556,152.278321 283.87556,168.127751 L283.87556,206.314563 C283.87556,211.783787 279.519384,216.226567 274.159327,216.226567 C268.794108,216.226567 264.435352,211.783787 264.435352,206.314563 L264.435352,168.127751 C264.435352,141.314147 285.785258,119.50671 312.038443,119.50671 C316.613976,119.50671 321.153379,120.175571 325.519877,121.492712 Z M99.068159,119.509282 C125.42199,119.509282 146.869962,141.309002 146.869962,168.120034 L146.869962,206.309418 C146.869962,211.786359 142.495721,216.229139 137.117599,216.229139 C131.716251,216.229139 127.33943,211.786359 127.33943,206.309418 L127.33943,168.120034 C127.33943,152.270603 114.658004,139.356443 99.068159,139.356443 C83.4757338,139.356443 70.7943075,152.270603 70.7943075,168.120034 L70.7943075,206.309418 C70.7943075,211.786359 66.3994216,216.229139 61.0058154,216.229139 C55.6405966,216.229139 51.2560335,211.786359 51.2560335,206.309418 L51.2560335,168.120034 C51.2560335,141.309002 72.7143281,119.509282 99.068159,119.509282 Z M251.249662,192.809232 C251.249662,185.040156 254.418728,177.420287 254.418728,167.119829 C254.418728,144.023548 235.259813,118.115479 204.973037,118.115479 C176.190792,118.115479 155.524764,142.26393 155.524764,167.719232 C155.524764,192.64459 175.364977,217.294686 204.973037,217.294686 C216.464773,217.294686 218.309954,214.282239 228.046832,214.282239 C242.206984,214.282239 247.019939,221.045452 253.079359,215.342127 C259.138779,209.628511 251.249662,207.297788 251.249662,192.809232 M230.882992,194.231848 C228.155221,196.727214 214.601527,198.03921 205.646592,198.03921 C196.66327,198.03921 175.210137,190.938994 175.210137,168.045944 C175.210137,145.155467 195.233577,137.720821 205.468526,137.720821 C224.568085,137.720821 235.706269,153.853231 235.706269,167.708941 C235.706269,181.554362 233.613344,191.757063 230.882992,194.231848" id="Fill-8" fill="#FEFEFE"></path>
            </g>
        </g>
    </g>
</svg>