<?xml version="1.0" encoding="UTF-8"?>
<svg width="251px" height="251px" viewBox="0 0 251 251" version="1.1" xmlns="http://www.w3.org/2000/svg" xmlns:xlink="http://www.w3.org/1999/xlink">
    <!-- Generator: Sketch 56.2 (81672) - https://sketch.com -->
    <title>Nar+</title>
    <desc>Created with Sketch.</desc>
    <defs>
        <polygon id="path-1" points="0 0.264 250.736 0.264 250.736 250.94 0 250.94"></polygon>
    </defs>
    <g id="Page-1" stroke="none" stroke-width="1" fill="none" fill-rule="evenodd">
        <g id="Nar+">
            <g id="Group-3">
                <mask id="mask-2" fill="white">
                    <use xlink:href="#path-1"></use>
                </mask>
                <g id="Clip-2"></g>
                <path d="M199.805,251 L50.931,251 C22.802,251 0,228.198 0,200.07 L0,51.195 C0,23.066 22.802,0.264 50.931,0.264 L199.805,0.264 C227.934,0.264 250.736,23.066 250.736,51.195 L250.736,200.07 C250.736,228.198 227.934,251 199.805,251" id="Fill-1" fill="#C23250" mask="url(#mask-2)"></path>
            </g>
            <path d="M228,145.315 C228,141.623 225.008,138.631 221.317,138.631 L206.385,138.631 L206.385,117.016 L198.879,117.016 C195.189,117.016 192.196,120.008 192.196,123.699 L192.196,138.631 L170.581,138.631 L170.581,146.253 C170.581,149.88 173.521,152.82 177.147,152.82 L192.196,152.82 L192.196,174.435 L199.819,174.435 C203.445,174.435 206.385,171.495 206.385,167.869 L206.385,152.82 L228,152.82 L228,145.315" id="Fill-4" fill="#FFFFFE"></path>
            <path d="M101.993,114.358 L101.993,114.358 C95.733,114.391 90.684,119.493 90.7168392,125.753 C90.75,132.013 95.852,137.062 102.112,137.029 C104.591,137.044 107.067,136.839 109.51,136.414 C111.538,136.108 112.254,135.324 112.68,133.006 C112.68,132.716 112.782,132.46 112.834,132.222 C113.263,130.068 113.441,127.871 113.362,125.676 C113.362,119.425 108.295,114.358 102.044,114.358 C102.027,114.358 102.01,114.358 101.993,114.358" id="Fill-5" fill="#FFFFFE"></path>
            <path d="M147.147,115.602 C146.783,115.601 146.422,115.55 146.073,115.449 C145.061,115.147 144.009,114.997 142.953,115.006 C136.872,115.006 131.942,119.935 131.942,126.017 L131.942,140.642 C131.943,142.742 130.242,144.445 128.143,144.446 C126.044,144.447 124.341,142.746 124.339999,140.647 C124.339999,140.645 124.339999,140.644 124.339999,140.642 L124.339999,126.017 C124.337,115.737 132.668,107.401 142.947,107.397 C144.727,107.397 146.496,107.652 148.203,108.153 C150.218,108.744 151.372,110.855 150.782,112.87 C150.309,114.485 148.829,115.597 147.147,115.602 Z M118.169,144.801028 L118.033,144.801028 C117.561,144.803 117.095,144.698 116.669,144.494 C114.788,143.844 112.813,143.51 110.822,143.506 C109.622,143.49 108.425,143.627 107.26,143.915 L107.14,143.915 C105.774,144.303 104.367,144.532 102.947,144.597 L102.078,144.597 C91.722,144.832 83.137,136.628 82.901,126.273 C82.666,115.917 90.87,107.332 101.226,107.097 L102.112,107.097 C112.467,107.099 120.86,115.496 120.857,125.852 C120.857,127.579 120.617,129.298 120.146,130.96 C120.154,131.039 120.154,131.119 120.146,131.199 C119.112,134.023 119.31,137.153 120.692,139.824 C121.048,140.324 121.249,140.916 121.271,141.529 C121.328,143.279 119.956,144.744 118.206,144.8 C118.194,144.801028 118.181,144.801028 118.169,144.801028 Z M79.7310018,140.642 C79.733,142.742 78.032,144.445 75.932,144.446 C73.833,144.447 72.13,142.746 72.129,140.647 C72.129,140.645 72.129,140.644 72.129,140.642 L72.129,126.017 C72.13,119.935 67.201,115.005 61.119,115.004 C55.038,115.003 50.107,119.932 50.106,126.013 C50.106,126.015 50.106,126.016 50.106,126.017 L50.106,140.642 C50.106,142.742 48.404,144.444 46.305,144.444 C44.205,144.444 42.5039992,142.742 42.5039992,140.642 L42.5039992,126.017 C42.501,115.737 50.833,107.401 61.113,107.398 C71.393,107.396 79.729,115.727 79.7310018,126.008 C79.7310018,126.011 79.7310018,126.014 79.7310018,126.017 L79.7310018,140.642 Z M147.147,87.085 C125.856,58.771 85.644,53.079 57.331,74.369 C37.94,88.951 28.435,113.225 32.771,137.097 C34.405,147.587 31.737,158.293 25.373,166.79 C24.16,168.104 23.303,169.705 22.884,171.444 C22.403,174.166 23.11,176.964 24.827,179.131 C26.441,181.402 28.959,182.863 31.731,183.137 C33.502,183.208 35.262,182.827 36.844,182.029 C46.764,178.268 57.781,178.661 67.407,183.119 C99.174,198.82 137.653,185.795 153.353,154.029 C164.077,132.33 161.677,106.443 147.147,87.085 L147.147,87.085 Z" id="Fill-6" fill="#FFFFFE"></path>
        </g>
    </g>
</svg>