<?xml version="1.0" encoding="utf-8"?>
<!-- Generator: Adobe Illustrator 24.3.0, SVG Export Plug-In . SVG Version: 6.00 Build 0)  -->
<svg version="1.1" id="Layer_1" xmlns="http://www.w3.org/2000/svg" xmlns:xlink="http://www.w3.org/1999/xlink" x="0px" y="0px"
	 width="532.2px" height="239.3px" viewBox="0 0 532.2 239.3" style="enable-background:new 0 0 532.2 239.3;" xml:space="preserve"
	>
<style type="text/css">
	.st0{fill-rule:evenodd;clip-rule:evenodd;fill:#232D40;}
	.st1{fill-rule:evenodd;clip-rule:evenodd;fill:#40B659;}
	.st2{fill-rule:evenodd;clip-rule:evenodd;fill:#F6861F;}
</style>
<g>
	<rect x="4.8" y="62.5" class="st0" width="38" height="120.1"/>
	<path class="st0" d="M23.8,46.8c6.8,0,12.5-2.2,17-6.6c4.5-4.4,6.8-10,6.8-16.6c0-6.8-2.3-12.5-6.8-16.9C36.3,2.2,30.6,0,23.8,0
		C16.8,0,11,2.2,6.6,6.6C2.2,11,0,16.7,0,23.5c0,6.8,2.2,12.4,6.6,16.8C11,44.6,16.8,46.8,23.8,46.8z"/>
	<path class="st0" d="M55.5,62.5v120.1h38v-47.5c0-25.2,10.8-37.8,32.3-37.8c4.2,0,8.3,0.4,12.5,1.2V61.8c-2.7-1-6-1.5-10-1.5
		c-7.8,0-14.9,2-21.1,5.9c-6.3,3.9-11,9.5-14.1,16.9h-1l-1.5-20.5H55.5z"/>
	<path class="st0" d="M160.1,70c-9.5,7.2-14.3,16.7-14.3,28.5c0,9.8,3.3,17.9,10,24.3c6.7,6.3,16.4,10.3,29.3,11.8l16.5,1.8
		c6.7,0.8,11.3,2,14,3.6c2.7,1.6,4,4,4,7.1c0,3.7-1.5,6.5-4.5,8.4c-3,1.9-7.4,2.9-13.3,2.9c-5.8,0-10.5-1.1-14-3.4
		c-3.5-2.3-5.4-5.3-5.8-9.1h-36.8c0.8,12.5,6.1,22.3,15.8,29.4c9.7,7.1,23.3,10.6,41,10.6c17.5,0,31.1-3.6,40.6-10.8
		c9.6-7.2,14.4-17.2,14.4-30c0-10.3-3.3-18.5-9.9-24.6c-6.6-6.1-16.1-9.8-28.6-11.1l-16.5-2c-6.8-0.7-11.6-1.8-14.4-3.4
		c-2.8-1.6-4.1-3.7-4.1-6.4c0-3.2,1.5-5.7,4.5-7.5c3-1.8,7.3-2.8,13-2.8c11.5,0,17.7,4.3,18.5,13h36.3C255,87,250.1,76.8,241,69.8
		c-9.1-7-22.3-10.5-39.6-10.5C183.3,59.3,169.6,62.9,160.1,70z"/>
	<path class="st0" d="M290.8,67.4c-8.6,5.4-15.3,13-20.3,22.6c-4.9,9.7-7.4,20.5-7.4,32.5c0,12,2.5,22.8,7.4,32.5
		c4.9,9.7,11.7,17.2,20.3,22.6c8.6,5.4,18.3,8.1,29.1,8.1c8,0,15.1-1.5,21.3-4.6c6.2-3.1,10.9-7.5,14.3-13.4h1l1.5,14.8h35.3V62.5
		h-35.3l-1.5,14.8h-1c-3.3-5.8-8.1-10.3-14.3-13.4c-6.2-3.1-13.3-4.6-21.3-4.6C309.1,59.3,299.4,62,290.8,67.4L290.8,67.4z
		 M302.2,122.6c0-8.3,2.5-15.2,7.4-20.5c4.9-5.3,11.5-8,19.9-8c8.3,0,15,2.7,20,8c5,5.3,7.5,12.2,7.5,20.5c0,8.3-2.5,15.2-7.5,20.6
		c-5,5.4-11.7,8.1-20,8.1c-8.2,0-14.8-2.7-19.8-8.1C304.7,137.8,302.2,130.9,302.2,122.6z"/>
	<path class="st0" d="M429.3,67.4c-8.6,5.4-15.3,13-20.1,22.6c-4.8,9.7-7.3,20.5-7.3,32.5c0,12.2,2.4,23.1,7.3,32.6
		c4.8,9.6,11.6,17.1,20.3,22.5c8.7,5.4,18.4,8.1,29.3,8.1c7.8,0,14.8-1.5,21-4.6c6.2-3.1,10.9-7.5,14.3-13.4h1l1.5,14.8h35.7V7.5
		h-37.9v69.8h-0.8c-3.5-5.8-8.3-10.3-14.4-13.4c-6.1-3.1-13.1-4.6-20.9-4.6C447.6,59.3,437.9,62,429.3,67.4L429.3,67.4z
		 M440.7,122.6c0-8.3,2.5-15.2,7.4-20.5c4.9-5.3,11.5-8,19.9-8c8.3,0,15,2.7,20,8c5,5.3,7.5,12.2,7.5,20.5c0,8.3-2.5,15.2-7.5,20.6
		c-5,5.4-11.7,8.1-20,8.1c-8.2,0-14.8-2.7-19.8-8.1C443.2,137.8,440.7,130.9,440.7,122.6z"/>
	<rect x="4.8" y="203.2" class="st1" width="198.8" height="25"/>
	<rect x="203.6" y="203.2" class="st2" width="328.6" height="25"/>
	<path class="st0" d="M221.9,203.2c-1-1.6-2.1-3.1-3.5-4.4c-4.5-4.5-10.3-6.7-17.2-6.7c-7.1,0-12.8,2.2-17.3,6.7
		c-1.4,1.4-2.5,2.8-3.5,4.4c-2.1,3.6-3.2,7.8-3.2,12.6c0,4.7,1,8.8,3.1,12.4c1,1.7,2.2,3.2,3.6,4.6c4.5,4.4,10.2,6.6,17.3,6.6
		c6.9,0,12.6-2.2,17.2-6.7c1.4-1.4,2.6-2.9,3.6-4.4c2.2-3.6,3.3-7.7,3.3-12.4C225.2,211,224.1,206.8,221.9,203.2z"/>
</g>
</svg>
