<svg width="62" height="58" viewBox="0 0 62 58" fill="none" xmlns="http://www.w3.org/2000/svg">
<path d="M39.9617 7.63701L39.9616 7.63705C39.0325 7.86716 38.0558 7.49798 37.5123 6.70811M39.9617 7.63701L11.4726 13.4295C11.8091 9.90635 13.4397 6.64457 16.0654 4.24422C18.707 1.82951 22.1336 0.5 25.7162 0.5C30.4261 0.5 34.8359 2.82036 37.5123 6.70811M39.9617 7.63701C40.9771 7.38519 42.0256 7.25747 43.0785 7.25747C48.7899 7.25747 53.8885 11.087 55.4737 16.5662M39.9617 7.63701L55.4737 16.5662M37.5123 6.70811L37.9242 6.42467M37.5123 6.70811L37.9242 6.42467M37.9242 6.42467C35.1547 2.40169 30.591 0 25.7162 0C22.0088 0 18.4619 1.37614 15.7281 3.87518C13.0114 6.3587 11.3232 9.73485 10.9748 13.382L43.0785 6.75747C41.9853 6.75747 40.8964 6.89007 39.8414 7.15172C39.114 7.33186 38.3495 7.04272 37.9242 6.42467ZM55.4737 16.5662C55.6109 17.0406 55.8972 17.4584 56.2902 17.7575M55.4737 16.5662L56.2902 17.7575M56.2902 17.7575C59.0277 19.8421 60.595 22.9965 60.595 26.4164C60.595 32.4235 55.6783 37.3165 49.6299 37.3165H11.4651C5.41675 37.3165 0.5 32.4238 0.5 26.4164C0.5 23.8901 1.34196 21.5232 2.93718 19.5645C4.48976 17.6584 6.66178 16.3147 9.05107 15.7814L9.05141 15.7813L56.2902 17.7575ZM10.1698 15.2889C10.0011 15.3691 9.83102 15.4566 9.66331 15.5493C9.66327 15.5493 9.66322 15.5493 9.66318 15.5493L9.42145 15.1117L10.1698 15.2889ZM10.1698 15.2889C10.9006 14.9415 11.3957 14.2354 11.4726 13.4296L10.1698 15.2889Z" fill="white" stroke="#6592F3"/>
<path d="M8.51508 49.8913L9.14585 50.0622V49.4087V46.931C9.14585 46.3191 9.64192 45.823 10.2539 45.823C10.8657 45.823 11.3619 46.3189 11.3622 46.9313C11.3622 46.9314 11.3622 46.9315 11.3622 46.9315V49.409V50.0626L11.993 49.8916L14.6268 49.1779C14.6268 49.1779 14.6268 49.1779 14.6268 49.1779C14.6269 49.1779 14.6269 49.1779 14.6269 49.1778C15.2186 49.0178 15.8264 49.367 15.9864 49.9573L15.9864 49.9574C16.1466 50.5482 15.7974 51.1568 15.2069 51.3168L15.2069 51.3168L12.7094 51.9937L12.0362 52.1762L12.4252 52.7551L14.0559 55.1824C14.0559 55.1824 14.0559 55.1824 14.0559 55.1824C14.3971 55.6903 14.2619 56.3789 13.7539 56.72L13.7539 56.7201C13.564 56.8476 13.3496 56.9084 13.1375 56.9084C12.7791 56.9084 12.4299 56.7362 12.2162 56.4181L12.2161 56.4181L10.6925 54.1503L10.2702 53.5217L9.85804 54.157L8.45185 56.3245C8.45184 56.3245 8.45183 56.3245 8.45182 56.3245C8.23998 56.6509 7.88503 56.8295 7.52068 56.8295C7.31415 56.8295 7.10593 56.7721 6.91917 56.6508L6.91885 56.6506C6.4055 56.3177 6.25924 55.6317 6.59244 55.1182L6.59245 55.1181L8.12385 52.7578L8.49715 52.1825L7.83516 52.0031L5.3013 51.3165C5.30126 51.3165 5.30122 51.3165 5.30119 51.3165C4.71033 51.1562 4.36146 50.5479 4.52133 49.9572C4.68163 49.3663 5.29013 49.0173 5.88075 49.1775L5.88087 49.1775L8.51508 49.8913Z" fill="white" stroke="#6592F3"/>
<path d="M29.4393 50.0622L28.8085 49.8913L26.1743 49.1775L26.1742 49.1775C25.5835 49.0173 24.9749 49.3665 24.8148 49.957L29.4393 50.0622ZM29.4393 50.0622V49.4087M29.4393 50.0622V49.4087M29.4393 49.4087V46.931C29.4393 46.319 29.9354 45.823 30.5473 45.823C31.1592 45.823 31.6554 46.319 31.6554 46.9313V49.409V50.0626L32.2862 49.8916L34.9199 49.1779C34.9199 49.1779 34.92 49.1779 34.92 49.1779C34.92 49.1779 34.92 49.1778 34.9201 49.1778C35.5117 49.0178 36.1196 49.367 36.2795 49.9573L36.2795 49.9574C36.4398 50.5482 36.0906 51.1568 35.5 51.3168L35.5 51.3168L33.0026 51.9937L32.3294 52.1762L32.7183 52.7551L34.349 55.1824C34.349 55.1824 34.349 55.1824 34.349 55.1824C34.6902 55.6903 34.5551 56.3789 34.0471 56.72L34.047 56.7201C33.8572 56.8476 33.6427 56.9084 33.4306 56.9084C33.0722 56.9084 32.723 56.7362 32.5093 56.4181L32.5093 56.4181L30.9857 54.1503L30.5633 53.5217L30.1512 54.157L28.745 56.3245C28.5332 56.6509 28.1782 56.8295 27.8138 56.8295C27.6073 56.8295 27.3991 56.7721 27.2123 56.6508L27.212 56.6506C26.6986 56.3177 26.5524 55.6317 26.8856 55.1182L26.8856 55.1181L28.417 52.7578L28.7903 52.1825M29.4393 49.4087L28.7903 52.1825M28.7903 52.1825L28.1283 52.0031M28.7903 52.1825L28.1283 52.0031M28.1283 52.0031L25.5945 51.3165C25.5944 51.3165 25.5944 51.3165 25.5943 51.3165M28.1283 52.0031L25.5943 51.3165M25.5943 51.3165C25.0038 51.1562 24.6548 50.5478 24.8148 49.957L25.5943 51.3165Z" fill="white" stroke="#6592F3"/>
<path d="M49.7329 50.0622L49.1021 49.8913L46.4682 49.1775L46.4681 49.1775C45.8774 49.0173 45.2688 49.3664 45.1088 49.957L49.7329 50.0622ZM49.7329 50.0622V49.4087M49.7329 50.0622V49.4087M49.7329 49.4087V46.931C49.7329 46.3191 50.229 45.823 50.841 45.823C51.4528 45.823 51.9492 46.319 51.9496 46.9317V49.409V50.0626L52.5804 49.8916L55.2142 49.1779C55.2142 49.1779 55.2142 49.1779 55.2143 49.1779C55.2143 49.1779 55.2143 49.1778 55.2143 49.1778C55.806 49.0178 56.4138 49.367 56.5738 49.9573L56.5738 49.9574C56.734 50.5482 56.3848 51.1568 55.7943 51.3168L55.7943 51.3168L53.2965 51.9937L52.6233 52.1762L53.0123 52.7551L54.643 55.1824C54.643 55.1824 54.643 55.1824 54.643 55.1824C54.9841 55.6902 54.8488 56.3789 54.3409 56.7201C54.1511 56.8476 53.9366 56.9084 53.7245 56.9084C53.3662 56.9084 53.0169 56.7362 52.8032 56.4181L52.8032 56.4181L51.2796 54.1503L50.8573 53.5217L50.4451 54.157L49.0389 56.3245C49.0389 56.3245 49.0389 56.3245 49.0389 56.3245C48.827 56.6509 48.4721 56.8295 48.1078 56.8295C47.9012 56.8295 47.693 56.7721 47.5062 56.6508L47.5059 56.6506C46.9926 56.3177 46.8463 55.6317 47.1795 55.1182L47.1795 55.1181L48.7109 52.7578L49.0842 52.1825M49.7329 49.4087L49.0842 52.1825M49.0842 52.1825L48.4222 52.0031M49.0842 52.1825L48.4222 52.0031M48.4222 52.0031L45.8884 51.3165C45.8884 51.3165 45.8883 51.3165 45.8883 51.3165M48.4222 52.0031L45.8883 51.3165M45.8883 51.3165C45.2977 51.1562 44.9488 50.5478 45.1088 49.957L45.8883 51.3165Z" fill="white" stroke="#6592F3"/>
</svg>
