<svg width="69" height="71" viewBox="0 0 69 71" fill="none" xmlns="http://www.w3.org/2000/svg">
<g id="Group 1321314468">
<path id="XMLID_77_" d="M10.6255 17.0434C10.4558 17.1372 10.2738 17.2061 10.0849 17.2484M10.6255 17.0434L10.8673 17.4811C10.6559 17.5979 10.4293 17.6837 10.1942 17.7363L10.1938 17.7364C7.48499 18.341 5.02244 19.8643 3.26275 22.0252L3.26274 22.0252C1.45433 24.2456 0.5 26.9293 0.5 29.7932C0.5 36.6043 6.07388 42.1507 12.9304 42.1507H55.9746C62.8308 42.1507 68.405 36.6039 68.405 29.7932C68.405 25.9161 66.6279 22.3401 63.5243 19.9767C63.092 19.6476 62.7771 19.1881 62.6261 18.6662C60.8304 12.4592 55.0549 8.1213 48.585 8.1213C47.3927 8.1213 46.2047 8.26597 45.0544 8.55124L45.0542 8.5513C44.0314 8.80439 42.9578 8.39826 42.3599 7.52939C39.3295 3.12742 34.3363 0.5 29.0032 0.5C24.947 0.5 21.0667 2.00542 18.0756 4.73959C15.1026 7.45742 13.2562 11.1508 12.8751 15.1402L10.0849 17.2484M10.6255 17.0434C10.8235 16.934 11.026 16.83 11.2273 16.7341L10.8673 17.481M10.6255 17.0434L10.8673 17.481M10.0849 17.2484C7.26602 17.8776 4.70541 19.4618 2.87505 21.7094L10.0849 17.2484ZM10.8673 17.481C11.0564 17.3766 11.2498 17.2773 11.4419 17.1857M10.8673 17.481L11.4419 17.1857M11.4419 17.1857C12.2464 16.8034 12.7906 16.0266 12.8751 15.1402L11.4419 17.1857Z" fill="white" stroke="#E2EEFF"/>
<g id="Group 1321314467">
<path id="XMLID_60_" d="M19.7044 58.6497L19.7044 58.6496L17.2583 50.668L17.2583 50.6679C17.0105 49.8592 16.1536 49.4044 15.3453 49.6524L15.3452 49.6525C14.5366 49.9002 14.0819 50.7567 14.3297 51.5655L19.7044 58.6497ZM19.7044 58.6497C19.9524 59.4583 19.4977 60.3148 18.6891 60.5626C18.538 60.6087 18.3867 60.6305 18.2393 60.6305C17.5836 60.6305 16.9777 60.2059 16.7758 59.5472C16.7758 59.5472 16.7758 59.5472 16.7758 59.5472L14.3297 51.5656L19.7044 58.6497Z" fill="#3774F7" stroke="#E2EEFF"/>
<path id="XMLID_59_" d="M29.836 70.1884L29.8362 70.1884C30.645 69.9406 31.0997 69.084 30.8517 68.2754L30.8517 68.2753L28.4056 60.2936L28.4056 60.2936C28.1579 59.485 27.3017 59.0303 26.4925 59.2781L29.836 70.1884ZM29.836 70.1884C29.6859 70.2345 29.5347 70.2561 29.3867 70.2561C28.7309 70.2561 28.1247 69.8312 27.9232 69.173L27.9231 69.1729L25.477 61.1912L25.477 61.1911M29.836 70.1884L25.477 61.1911M25.477 61.1911C25.229 60.3825 25.6837 59.5259 26.4925 59.2781L25.477 61.1911Z" fill="#3774F7" stroke="#E2EEFF"/>
<path id="XMLID_58_" d="M47.1975 70.1558L47.0516 69.6775C46.9004 69.7237 46.749 69.7455 46.6015 69.7455C45.9458 69.7455 45.3399 69.321 45.138 68.6622C45.138 68.6622 45.138 68.6622 45.138 68.6622L42.6919 60.6805L42.6919 60.6804C42.4438 59.8718 42.8986 59.0152 43.7073 58.7675L43.7075 58.7674C44.5158 58.5194 45.3727 58.9742 45.6205 59.7829L45.6205 59.783L48.0665 67.7646L48.0666 67.7647C48.3146 68.5734 47.8598 69.4299 47.0511 69.6777L47.1975 70.1558ZM47.1975 70.1558C48.2703 69.8271 48.8736 68.6909 48.5446 67.6181M47.1975 70.1558C46.9991 70.2163 46.7985 70.2455 46.6015 70.2455C45.7323 70.2455 44.928 69.6834 44.6599 68.8087L48.5446 67.6181M48.5446 67.6181L46.0985 59.6364L48.5446 67.6181Z" fill="#3774F7" stroke="#E2EEFF"/>
<path id="XMLID_57_" d="M32.3579 49.6524L32.3577 49.6525C31.549 49.9002 31.0942 50.7568 31.3422 51.5654L31.3423 51.5655L33.7883 59.5472C33.7884 59.5472 33.7884 59.5472 33.7884 59.5472C33.9903 60.206 34.5962 60.6305 35.2519 60.6305C35.3992 60.6305 35.5506 60.6087 35.7017 60.5626C36.5101 60.3149 36.9647 59.4584 36.7169 58.6496L32.3579 49.6524ZM32.3579 49.6524C33.166 49.4045 34.0227 49.859 34.2709 50.668C34.2709 50.668 34.2709 50.668 34.2709 50.6681L36.7169 58.6496L32.3579 49.6524Z" fill="#3774F7" stroke="#E2EEFF"/>
<path id="XMLID_56_" d="M53.7291 58.6496L53.7292 58.6497C53.9772 59.4583 53.5225 60.3147 52.7139 60.5626C52.5628 60.6087 52.4115 60.6305 52.2641 60.6305C51.6083 60.6305 51.0022 60.2058 50.8006 59.5474L50.8006 59.5472L48.3545 51.5655L48.3545 51.5654C48.1064 50.7568 48.5612 49.9002 49.3699 49.6525L49.3701 49.6524C50.1787 49.4044 51.0353 49.8592 51.2831 50.6679L51.2831 50.668L53.7291 58.6496Z" fill="#3774F7" stroke="#E2EEFF"/>
</g>
</g>
</svg>
